<?xml version="1.0" encoding="iso-8859-1"?>
<!-- Uploaded to: SVG Repo, www.svgrepo.com, Generator: SVG Repo Mixer Tools -->
<svg fill="#000000" height="800px" width="800px" version="1.1" id="Layer_1" xmlns="http://www.w3.org/2000/svg" xmlns:xlink="http://www.w3.org/1999/xlink" 
	 viewBox="0 0 511.755 511.755" xml:space="preserve">
<g>
	<g>
		<path d="M436.891,74.866c-99.819-99.819-262.208-99.819-362.027,0c-99.819,99.797-99.819,262.229,0,362.027
			c49.899,49.92,115.456,74.859,181.013,74.859s131.115-24.939,181.013-74.859C536.709,337.095,536.709,174.663,436.891,74.866z
			 M341.211,319.879c-11.797,0-21.333-9.557-21.333-21.333v-76.501l-134.251,134.25c-4.16,4.16-9.621,6.251-15.083,6.251
			c-5.461,0-10.923-2.091-15.083-6.251c-8.341-8.341-8.341-21.824,0-30.165l134.251-134.251h-76.501
			c-11.797,0-21.333-9.557-21.333-21.333s9.536-21.333,21.333-21.333h128c2.773,0,5.547,0.576,8.149,1.643
			c5.227,2.155,9.387,6.315,11.541,11.541c1.088,2.603,1.643,5.376,1.643,8.149v128h0
			C362.544,310.322,353.008,319.879,341.211,319.879z"/>
	</g>
</g>
</svg>