<?xml version="1.0" encoding="UTF-8"?>
<!DOCTYPE svg PUBLIC "-//W3C//DTD SVG 1.1//EN" "http://www.w3.org/Graphics/SVG/1.1/DTD/svg11.dtd">
<!-- Creator: CorelDRAW -->
<svg fill="#ffffff" stroke="#ffffff"  xmlns="http://www.w3.org/2000/svg" xml:space="preserve" width="33.0188mm" height="30.3902mm" version="1.1" shape-rendering="geometricPrecision" text-rendering="geometricPrecision" image-rendering="optimizeQuality" fill-rule="evenodd" clip-rule="evenodd"
viewBox="0 0 3287.68 3025.95"
 xmlns:xlink="http://www.w3.org/1999/xlink"
 xmlns:xodm="http://www.corel.com/coreldraw/odm/2003">
 <g  id="Layer_x0020_1">
  <metadata id="CorelCorpID_0Corel-Layer"/>
  <path fill="#currentColor" stroke="#currentColor" stroke-width="19.91" stroke-miterlimit="22.9256" d="M529.75 1663.84l-469.47 -211.61c-42.93,-19.36 -62.16,-70.15 -42.82,-113.07l576.43 -1278.89c19.36,-42.92 70.15,-62.16 113.07,-42.82l773.61 348.68 73.77 -163.66c19.36,-42.92 70.15,-62.16 113.07,-42.82l1278.88 576.43c42.92,19.36 62.16,70.15 42.82,113.07l-231.19 512.92 469.48 211.62c42.92,19.36 62.16,70.15 42.82,113.07l-576.43 1278.89c-19.36,42.92 -70.15,62.16 -113.07,42.82l-773.61 -348.69 -73.77 163.66c-19.36,42.93 -70.15,62.16 -113.07,42.82l-1278.88 -576.43c-42.93,-19.36 -62.16,-70.15 -42.82,-113.07l231.18 -512.92zm-153.24 548.05l266.31 -590.87 -547.42 -246.73 576.43 -1278.89 851.55 383.81 108.9 -241.61 1278.88 576.43 -266.32 590.87 547.43 246.74 -576.43 1278.89 -851.55 -383.82 -108.9 241.61 -1278.88 -576.43zm1299.32 -1663.96l274.88 123.9 -266.31 590.87 120.08 54.13 108.9 -241.61 579.02 260.98 197.62 -438.44 -974 -439 -40.19 89.16zm-619.97 968.57l132.49 -293.96 -151.67 -68.37 -172.69 383.14 426.58 192.27 40.19 -89.16 -274.88 -123.9zm201.2 -446.4l197.62 -438.44 -699.1 -315.1 -439.02 974 394.98 178.02 241.41 -535.57 304.12 137.08zm1319.07 487.26l-241.4 535.58 -304.13 -137.08 -197.61 438.43 699.1 315.11 439.01 -974 -394.98 -178.03zm-697.97 329.79l-122.45 -55.19 -197.62 438.42 122.46 55.21 197.61 -438.44zm-274.89 -123.9l-120.09 -54.12 -108.9 241.61 -579.02 -260.98 -197.61 438.43 973.99 439.01 40.2 -89.17 -274.89 -123.9 266.32 -590.87zm-326.27 -330.46l63.78 -141.53 122.46 55.19 -63.79 141.53 -122.45 -55.19zm132.5 -293.97l197.62 -438.43 122.45 55.19 -197.61 438.44 -122.46 -55.2zm1014.19 349.85l-172.69 383.13 -151.67 -68.36 132.5 -293.96 -274.89 -123.9 40.19 -89.17 426.58 192.28zm-476.81 246.05l-122.46 -55.19 63.79 -141.52 122.46 55.19 -63.79 141.52zm-274.89 -123.9l-120.09 -54.12 63.79 -141.53 120.08 54.13 -63.78 141.52zm360.92 -915.42c-1.12,3.9 -2.53,7.78 -4.25,11.59l-127.9 283.74c15.72,-2.37 32.24,-0.42 47.75,6.57l501.08 225.85 127.36 -282.55 -544.04 -245.21zm-818.65 261.65l127.35 -282.55 -543.22 -244.84 -368.76 818.12 239.11 107.76 206.27 -457.62c19.36,-42.93 70.15,-62.16 113.07,-42.82l226.18 101.95zm1404.68 713.4l-206.26 457.63c-19.36,42.93 -70.15,62.16 -113.08,42.82l-226.17 -101.95 -127.35 282.54 543.21 244.85 368.76 -818.12 -239.11 -107.77zm-1232.03 364.8c-15.71,2.38 -32.24,0.42 -47.75,-6.56l-501.08 -225.85 -127.35 282.54 544.03 245.22c1.13,-3.91 2.53,-7.79 4.25,-11.6l127.9 -283.74z"/>
 </g>
</svg>
